<?xml version="1.0" standalone="no"?>
<svg viewBox="0 0 200 200" xmlns="http://www.w3.org/2000/svg">
  <path fill="#FF0066" d="M38.8,-57.5C53.9,-50.7,72.3,-46,78.6,-35C85,-24,79.4,-6.7,73.5,8.1C67.6,23,61.3,35.4,52.3,44.6C43.2,53.9,31.3,60,18.8,63.5C6.3,67,-6.9,67.7,-18.3,63.7C-29.7,59.8,-39.2,51,-48.7,41.4C-58.1,31.8,-67.5,21.4,-69.5,9.8C-71.6,-1.9,-66.3,-14.9,-60.7,-28C-55.1,-41.1,-49.3,-54.5,-39.2,-63.5C-29,-72.6,-14.5,-77.5,-1.3,-75.4C11.9,-73.4,23.7,-64.4,38.8,-57.5Z" transform="translate(100 100)" />
</svg>
